<svg xmlns="http://www.w3.org/2000/svg" viewBox="0 0 512 514.5" version="1.0" fit="" height="50px" width="50px" preserveAspectRatio="xMidYMid meet" style="pointer-events: none; display: inline-block;fill:#fff"><path fill="#fff" d="M295.656 191.562L128 359.297 154.695 386l167.79-167.594-26.83-26.844zm-38.992 47.954l39.445-39.47L314 217.94l-39.438 39.47-17.898-17.892zm106.07-74.797l-13.422-13.423-26.828 26.844 13.422 13.422zm-74.328 2.655L281.812 130l-18.664 3.297 6.602 37.39zm58.235 58.28l-3.28 18.673 37.36 6.61L384 232.25zm-42.218 55.064l16.03 34.405 17.204-8.03-16.03-34.392zm-63.03-88.267L207 176.423l-8.03 17.202 34.397 16.03zM256 2C114.61 2 0 116.61 0 258s114.61 256 256 256 256-114.61 256-256S397.39 2 256 2zm0 472c-119.297 0-216-96.703-216-216S136.703 42 256 42s216 96.703 216 216-96.703 216-216 216z"></path></svg>